<?xml version="1.0" encoding="iso-8859-1"?>
<!-- Generator: Adobe Illustrator 18.1.1, SVG Export Plug-In . SVG Version: 6.00 Build 0)  -->
<svg version="1.1" id="Capa_1" xmlns="http://www.w3.org/2000/svg" xmlns:xlink="http://www.w3.org/1999/xlink" x="0px" y="0px"
	 viewBox="0 0 32 32" style="enable-background:new 0 0 32 32;" xml:space="preserve">
<g id="save">
	<path d="M29,32H3c-1.654,0-3-1.346-3-3V3c0-1.654,1.346-3,3-3h20.497c0.266,0,0.52,0.105,0.707,0.293l7.498,7.498
		c0.188,0.188,0.293,0.441,0.293,0.707L32,29C32,30.654,30.654,32,29,32z M3,2C2.448,2,2,2.448,2,3v26c0,0.552,0.448,1,1,1h26
		c0.552,0,1-0.448,1-1L29.995,8.912L23.083,2H3z"/>
	<path d="M25.996,31.996H5.906c-0.553,0-1-0.447-1-1v-8c0-1.654,1.346-3,3-3h16.09c1.654,0,3,1.346,3,3v8
		C26.996,31.549,26.549,31.996,25.996,31.996z M6.906,29.996h18.09v-7c0-0.552-0.448-1-1-1H7.906c-0.552,0-1,0.448-1,1V29.996z"/>
	<path d="M18.999,12.031H7.997c-1.654,0-3-1.346-3-3V1.077c0-0.553,0.447-1,1-1h15.002c0.553,0,1,0.447,1,1v7.954
		C21.999,10.686,20.653,12.031,18.999,12.031z M6.997,2.077v6.954c0,0.552,0.448,1,1,1h11.002c0.552,0,1-0.448,1-1V2.077H6.997z"/>
	<path d="M17.498,8.856h-0.5c-0.552,0-1-0.448-1-1V4.253c0-0.552,0.448-1,1-1h0.5c0.552,0,1,0.448,1,1v3.603
		C18.498,8.408,18.05,8.856,17.498,8.856z"/>
</g>
<g>
</g>
<g>
</g>
<g>
</g>
<g>
</g>
<g>
</g>
<g>
</g>
<g>
</g>
<g>
</g>
<g>
</g>
<g>
</g>
<g>
</g>
<g>
</g>
<g>
</g>
<g>
</g>
<g>
</g>
</svg>
