<?xml version="1.0" encoding="iso-8859-1"?>
<!-- Generator: Adobe Illustrator 19.0.0, SVG Export Plug-In . SVG Version: 6.00 Build 0)  -->
<svg version="1.1" id="Capa_1" xmlns="http://www.w3.org/2000/svg" xmlns:xlink="http://www.w3.org/1999/xlink" x="0px" y="0px"
	 viewBox="0 0 479.952 479.952" style="enable-background:new 0 0 479.952 479.952;" xml:space="preserve">
<g>
	<g>
		<path d="M431.392,205.104c-0.121-0.257-0.254-0.508-0.4-0.752c-0.301-0.575-0.669-1.112-1.096-1.6
			c-0.226-0.246-0.466-0.479-0.72-0.696c-0.469-0.404-0.985-0.75-1.536-1.032c-0.294-0.167-0.598-0.314-0.912-0.44
			c-0.144-0.056-0.272-0.168-0.424-0.216L334.48,172.4l-36-12c-1.298-0.394-2.674-0.452-4-0.168l-37.896-11.536l76.408-62.512
			c3.415-2.803,3.912-7.844,1.109-11.259c-1.506-1.836-3.751-2.907-6.125-2.925h-32V8c0-4.418-3.582-8-8-8s-8,3.582-8,8v72
			c0,4.418,3.582,8,8,8h17.6l-65.6,53.664L174.376,88h17.6c4.418,0,8-3.582,8-8V8c0-4.418-3.582-8-8-8s-8,3.582-8,8v64h-32
			c-4.418,0.001-7.999,3.583-7.998,8.001c0,2.399,1.078,4.671,2.935,6.191l76.408,62.512l-169.672,51.64
			c-0.152,0.048-0.28,0.16-0.424,0.216c-0.314,0.126-0.618,0.273-0.912,0.44c-0.551,0.282-1.067,0.628-1.536,1.032
			c-0.254,0.218-0.494,0.45-0.72,0.696c-0.431,0.485-0.799,1.023-1.096,1.6c-0.148,0.24-0.281,0.489-0.4,0.744
			c-0.36,0.88-0.558,1.818-0.584,2.768c0,0,0,0.064,0,0.096V208v200c0.002,3.405,2.159,6.435,5.376,7.552l184,64h0.128
			c0.747,0.244,1.526,0.379,2.312,0.4c0.064,0,0.12,0,0.184,0c0.922-0.012,1.834-0.185,2.696-0.512
			c0.073-0.009,0.145-0.023,0.216-0.04l184-72c3.051-1.192,5.067-4.124,5.088-7.4V208v-0.064c0,0,0-0.064,0-0.096
			C431.946,206.901,431.748,205.974,431.392,205.104z M294.632,176.984l24.064,7.336L165.48,237.6l-19.2-6.672L294.632,176.984z
			 M151.976,253.416v54.768l-24-9.6v-54.768L151.976,253.416z M239.976,160.328l29.168,8.88l-146.768,53.408l-40.568-14.112
			L239.976,160.328z M231.976,460.752l-168-58.4V219.248l48,16.696V304c-0.001,3.273,1.992,6.218,5.032,7.432l40,16
			c2.464,0.987,5.257,0.687,7.456-0.8c2.199-1.49,3.515-3.975,3.512-6.632v-64.576l64,22.264V460.752z M239.976,263.528
			l-50.152-17.44l154.848-53.864l53.488,16.28L239.976,263.528z M415.976,394.536l-168,65.744V277.688l168-58.4V394.536z"/>
	</g>
</g>
<g>
</g>
<g>
</g>
<g>
</g>
<g>
</g>
<g>
</g>
<g>
</g>
<g>
</g>
<g>
</g>
<g>
</g>
<g>
</g>
<g>
</g>
<g>
</g>
<g>
</g>
<g>
</g>
<g>
</g>
</svg>
