<svg height="512pt" viewBox="0 0 512.0004 512" width="512pt" xmlns="http://www.w3.org/2000/svg"><path d="m276.460938 354.308594h-39.921876v-39.921875h39.921876zm77.847656-39.921875h-39.921875v39.921875h39.921875zm77.847656 0h-39.921875v39.921875h39.921875zm-155.695312-80.84375h-39.921876v39.921875h39.921876zm77.847656 0h-39.921875v39.921875h39.921875zm77.847656 0h-39.921875v39.921875h39.921875zm79.84375-15.96875v233.542969c0 33.019531-26.863281 59.886718-59.882812 59.886718h-392.234376c-16.035156 0-31.101562-6.257812-42.417968-17.617187-11.320313-11.359375-17.5234378-26.449219-17.464844-42.484375v-193.550782c.121094-32.972656 26.984375-59.738281 59.882812-59.738281h95.8125v-39.921875h158.691407v-37.925781h-118.769531v-119.765625h277.460937v119.765625h-118.769531v37.925781h97.808594c33.019531 0 59.882812 26.863282 59.882812 59.882813zm-276.460938-137.730469h197.617188v-39.921875h-197.617188zm-39.921874 117.769531v193.621094h276.460937v-173.660156c0-11.003907-8.953125-19.960938-19.960937-19.960938zm-155.695313 59.8125v133.808594h115.773437v-73.855469h-84.832031v-39.921875h84.832031v-39.921875h-95.8125c-10.964843 0-19.921874 8.921875-19.960937 19.890625zm432.15625 193.691407v-19.960938h-432.15625v19.816406c-.019531 5.417969 2.046875 10.449219 5.820313 14.234375 3.773437 3.789063 8.796874 5.875 14.140624 5.875h392.234376c11.007812 0 19.960937-8.957031 19.960937-19.964843zm0 0"/></svg>