<svg height="440pt" viewBox="-4 0 440 440" width="440pt" xmlns="http://www.w3.org/2000/svg"><path d="m32 224h64v16h-64zm0 0"/><path d="m32 256h48v16h-48zm0 0"/><path d="m32 304h16v16h-16zm0 0"/><path d="m64 304h16v16h-16zm0 0"/><path d="m96 304h16v16h-16zm0 0"/><path d="m336 272h32v16h-32zm0 0"/><path d="m336 240h32v16h-32zm0 0"/><path d="m336 312h32v16h-32zm0 0"/><path d="m336 344h32v16h-32zm0 0"/><path d="m368 8c0-4.417969-3.582031-8-8-8h-352c-4.417969 0-8 3.582031-8 8v336c0 4.417969 3.582031 8 8 8h200v80c0 4.417969 3.582031 8 8 8h208c4.417969 0 8-3.582031 8-8v-256c0-4.417969-3.582031-8-8-8h-56zm-16 96h-128v-88h128zm-192 16h48v16h-48zm0-16v-88h48v88zm-16-88v88h-128v-88zm-128 320v-216h128v24c0 4.417969 3.582031 8 8 8h64c4.417969 0 8-3.582031 8-8v-24h128v48h-8v-14.769531c.277344-12.265625-8.460938-22.890625-20.550781-24.992188-6.898438-1-13.886719 1.046875-19.15625 5.605469-5.269531 4.5625-8.296875 11.1875-8.292969 18.15625v16h-80c-4.417969 0-8 3.582031-8 8v160zm272-112h64c6.789062-.019531 13.246094-2.929688 17.761719-8h14.238281v176h-128v-176h14.238281c4.515625 5.070312 10.972657 7.980469 17.761719 8zm72-24c0 4.417969-3.582031 8-8 8h-64c-4.417969 0-8-3.582031-8-8v-16h24c4.417969 0 8-3.582031 8-8v-24c0-2.332031 1.015625-4.550781 2.785156-6.070312 1.769532-1.523438 4.117188-2.195313 6.421875-1.839844 4.164063 1.019531 7.015625 4.859375 6.792969 9.140625v22.769531c0 4.417969 3.582031 8 8 8h24zm56 224h-192v-240h40v16h-16c-4.417969 0-8 3.582031-8 8v192c0 4.417969 3.582031 8 8 8h144c4.417969 0 8-3.582031 8-8v-192c0-4.417969-3.582031-8-8-8h-16v-16h40zm0 0"/><path d="m296 288c2.8125.011719 5.417969-1.464844 6.855469-3.878906l24-40-13.710938-8.242188-18.730469 31.199219-8.757812-8.75-11.3125 11.3125 16 16c1.496094 1.503906 3.53125 2.355469 5.65625 2.359375zm0 0"/><path d="m280 360h32c4.417969 0 8-3.582031 8-8v-32c0-4.417969-3.582031-8-8-8h-32c-4.417969 0-8 3.582031-8 8v32c0 4.417969 3.582031 8 8 8zm8-32h16v16h-16zm0 0"/></svg>